# xmcd
# Track frame offsets:
# 150
# 15553
# 32931
# 45385
# 61926
# 72954
# 87628
# 98834
# 110508
# 124120
# 134070
# 147212
# 159844
# 172623
#
# Disc length: 2437 seconds
# Revision: 0
# Processed by: cddbd v1.5.2PL0 Copyright (c) Steve Scherf et al.
# Submitted via: VisiTrax 2.11.0.264 - For more info visit www.synapsa.com
#
DISCID=b809830e
DTITLE=Bobby Bare - The Great Bobby Bare
DYEAR=1996
DGENRE=Country
TTITLE0=For The Good Times
TTITLE1=Sylvia's Mother
TTITLE2=Loving Her Was Easier (Than Anything I'll Ever Do Again)
TTITLE3=Me And Bobby McGee
TTITLE4=Don't It Make You Want To Go Home
TTITLE5=Leaving On A Jet Plane
TTITLE6=Hello Darlin'
TTITLE7=That's How I Got To Memphis
TTITLE8=Mrs Jones Your Daughter Cried All Night
TTITLE9=Mabel (You've Been A Friend To Me)
TTITLE10=I Took A Memory To Lunch
TTITLE11=When Love Is Gone
TTITLE12=The Year That Clayton Delaney Died
TTITLE13=Help Me Make It Through The Night
EXTD=
EXTT0=
EXTT1=
EXTT2=
EXTT3=
EXTT4=
EXTT5=
EXTT6=
EXTT7=
EXTT8=
EXTT9=
EXTT10=
EXTT11=
EXTT12=
EXTT13=
PLAYORDER=
